<svg width="784" height="1016" viewBox="0 0 784 1016" fill="none" xmlns="http://www.w3.org/2000/svg">
<rect x="597" width="93" height="34" rx="17" fill="#A3B4CC"/>
<path d="M610.51 23V10.4H614.002V19.94H620.104V23H610.51ZM626.033 23.234C622.937 23.234 620.687 20.966 620.687 18.176V18.14C620.687 15.35 622.955 13.046 626.069 13.046C629.183 13.046 631.433 15.332 631.433 18.104V18.14C631.433 20.93 629.147 23.234 626.033 23.234ZM626.069 20.336C627.311 20.336 628.121 19.346 628.121 18.176V18.14C628.121 16.934 627.257 15.926 626.033 15.926C624.791 15.926 623.999 16.898 623.999 18.104V18.14C623.999 19.328 624.863 20.336 626.069 20.336ZM637.486 25.916C635.614 25.916 634.048 25.52 632.626 24.8L633.724 22.532C634.786 23.108 635.812 23.45 637.126 23.45C638.836 23.45 639.664 22.622 639.664 21.056V20.678C638.962 21.47 638.098 22.136 636.676 22.136C634.282 22.136 632.338 20.408 632.338 17.618V17.582C632.338 14.774 634.318 13.046 636.55 13.046C638.044 13.046 638.89 13.64 639.61 14.414V13.262H643.03V20.66C643.03 22.424 642.616 23.72 641.77 24.548C640.888 25.466 639.52 25.916 637.486 25.916ZM637.684 19.508C638.854 19.508 639.682 18.698 639.682 17.618V17.582C639.682 16.502 638.836 15.692 637.684 15.692C636.514 15.692 635.686 16.502 635.686 17.6V17.636C635.686 18.716 636.514 19.508 637.684 19.508ZM649.916 12.38V9.86H653.462V12.38H649.916ZM649.988 23V13.262H653.39V23H649.988ZM655.132 23V13.262H658.552V14.63C659.182 13.82 660.082 13.046 661.468 13.046C663.556 13.046 664.78 14.396 664.78 16.628V23H661.378V17.726C661.378 16.646 660.838 16.07 659.992 16.07C659.146 16.07 658.552 16.646 658.552 17.726V23H655.132ZM670.32 23.216C668.016 23.216 666 21.29 666 18.176V18.14C666 14.972 667.998 13.046 670.302 13.046C671.76 13.046 672.642 13.712 673.272 14.45V9.86H676.692V23H673.272V21.704C672.606 22.514 671.778 23.216 670.32 23.216ZM671.346 20.354C672.462 20.354 673.344 19.436 673.344 18.14V18.104C673.344 16.808 672.462 15.89 671.346 15.89C670.266 15.89 669.348 16.808 669.348 18.104V18.14C669.348 19.436 670.266 20.354 671.346 20.354Z" fill="white"/>
<mask id="mask0_442_1063" style="mask-type:alpha" maskUnits="userSpaceOnUse" x="-863" y="118" width="1693" height="1069">
<rect x="-863" y="118" width="1693" height="1069" fill="black"/>
</mask>
<g mask="url(#mask0_442_1063)">
</g>
</svg>
